<?xml version="1.0" encoding="utf-8"?>
<!-- Generator: Adobe Illustrator 16.0.5, SVG Export Plug-In . SVG Version: 6.00 Build 0)  -->
<!DOCTYPE svg PUBLIC "-//W3C//DTD SVG 1.1//EN" "http://www.w3.org/Graphics/SVG/1.1/DTD/svg11.dtd">
<svg version="1.1" id="Layer_1" xmlns="http://www.w3.org/2000/svg" xmlns:xlink="http://www.w3.org/1999/xlink" x="0px" y="0px"
	 width="153px" height="153px" viewBox="0 0 153 153" enable-background="new 0 0 153 153" xml:space="preserve">
<path opacity="0.1" fill="#FFFFFF" d="M152,39v-1h-37V0.999h-1V38H39V0.999h-1V38H1v1h37v75H1v1h37v37h1v-37h75v37h1v-37h37v-1h-37
	V39H152z M114,114H39V39h75V114z"/>
<path opacity="0.2" fill="#FFFFFF" d="M0,0v153h153V0H0z M1,1h75v75H1V1z M1,152V77h75v75H1z M152,152H77V77h75V152z M152,76H77V1
	h75V76z"/>
</svg>
