<?xml version="1.0" encoding="utf-8"?>
<!-- Generator: Adobe Illustrator 16.0.5, SVG Export Plug-In . SVG Version: 6.00 Build 0)  -->
<!DOCTYPE svg PUBLIC "-//W3C//DTD SVG 1.1//EN" "http://www.w3.org/Graphics/SVG/1.1/DTD/svg11.dtd">
<svg version="1.1" id="Layer_1" xmlns="http://www.w3.org/2000/svg" xmlns:xlink="http://www.w3.org/1999/xlink" x="0px" y="0px"
	 width="153px" height="153px" viewBox="0 0 153 153" enable-background="new 0 0 153 153" xml:space="preserve">
<path opacity="0.1" fill="#FFFFFF" enable-background="new    " d="M152,20v-1h-18V1h-1v18h-18V0.999h-1V19H96V1h-1v18H58V1h-1v18
	H39V0.999h-1V19H20V1h-1v18H1v1h18v18H1v1h18v18H1v1h18v37H1v1h18v18H1v1h18v18H1v1h18v18h1v-18h18v18h1v-18h18v18h1v-18h37v18h1
	v-18h18v18h1v-18h18v18h1v-18h18v-1h-18v-18h18v-1h-18V96h18v-1h-18V58h18v-1h-18V39h18v-1h-18V20H152z M114,20v18H96V20H114z
	 M39,96h18v18H39V96z M58,57V39h37v18H58z M95,58v37H58V58H95z M57,57H39V39h18V57z M57,58v37H39V58H57z M58,96h37v18H58V96z M96,96
	h18v18H96V96z M96,95V58h18v37H96z M96,57V39h18v18H96z M95,20v18H58V20H95z M57,20v18H39V20H57z M20,20h18v18H20V20z M20,39h18v18
	H20V39z M20,58h18v37H20V58z M20,96h18v18H20V96z M20,133v-18h18v18H20z M39,133v-18h18v18H39z M58,133v-18h37v18H58z M96,133v-18
	h18v18H96z M133,133h-18v-18h18V133z M133,114h-18V96h18V114z M133,95h-18V58h18V95z M133,57h-18V39h18V57z M133,38h-18V20h18V38z"
	/>
<path opacity="0.2" fill="#FFFFFF" enable-background="new    " d="M0,0v153h153V0H0z M1,1h75v75H1V1z M1,152V77h75v75H1z M152,152
	H77V77h75V152z M152,76H77V1h75V76z"/>
</svg>
