<?xml version="1.0" encoding="utf-8"?>
<!-- Generator: Adobe Illustrator 16.0.5, SVG Export Plug-In . SVG Version: 6.00 Build 0)  -->
<!DOCTYPE svg PUBLIC "-//W3C//DTD SVG 1.1//EN" "http://www.w3.org/Graphics/SVG/1.1/DTD/svg11.dtd">
<svg version="1.1" id="Layer_1" xmlns="http://www.w3.org/2000/svg" xmlns:xlink="http://www.w3.org/1999/xlink" x="0px" y="0px"
	 width="32px" height="32px" viewBox="0 0 32 32" enable-background="new 0 0 32 32" xml:space="preserve">
<path fill="#ED2B83" d="M16.118,1.019c0.25,0,0.5-0.25,0.5-0.25h0.5c0.207,0,0.375,0.168,0.375,0.375v0.25h1.132
	C18.832,1.394,19,1.562,19,1.769v1.25h-6v-1.25c0-0.207,0.168-0.375,0.375-0.375h1.243v-0.25c0-0.207,0.168-0.375,0.375-0.375h0.5
	c0,0,0.25,0.25,0.5,0.25H16.118z"/>
<path fill="#ED2B83" d="M16.125,30.5c0.25,0,0.5,0.25,0.5,0.25h0.5c0.207,0,0.375-0.168,0.375-0.375v-0.75h1.125
	c0.207,0,0.375-0.168,0.375-0.375V28h-6v1.25c0,0.207,0.168,0.375,0.375,0.375h1.25v0.75c0,0.207,0.168,0.375,0.375,0.375h0.5
	c0,0,0.25-0.25,0.5-0.25H16.125z"/>
<g>
	<path fill="#ED2B83" d="M23.586,29L25,30.414V31h-1.125v-0.625V30v-0.205l-0.081-0.188L23.534,29H23.586 M8.591,29l-0.26,0.606
		L8.25,29.795V30v0.375V31H7v-0.568L8.521,29H8.591 M24,28h-4v1.125h2.5L22.875,30v0.375H18.25c0,0.62-0.505,1.125-1.125,1.125h-0.5
		c-0.207,0-0.389-0.069-0.53-0.22c-0.007-0.006-0.02-0.016-0.032-0.024c-0.014,0.01-0.029,0.021-0.04,0.031
		C15.881,31.438,15.707,31.5,15.5,31.5H15c-0.62,0-1.125-0.505-1.125-1.125H9.25V30l0.375-0.875H12V28H8.125L6,30v2h20v-2L24,28
		L24,28z"/>
</g>
<path fill="#ED2B83" d="M29,26H3L4,5h24L29,26z M3.75,4C3.339,4,3.004,4.333,3,4.743l-1.007,21.49v0.013
	c0,0.413,0.336,0.75,0.75,0.75h26.5c0.413,0,0.75-0.337,0.75-0.75v-0.013L29,4.743C28.996,4.333,28.661,4,28.25,4H3.75z"/>
</svg>
