<?xml version="1.0" encoding="utf-8"?>
<!-- Generator: Adobe Illustrator 16.0.5, SVG Export Plug-In . SVG Version: 6.00 Build 0)  -->
<!DOCTYPE svg PUBLIC "-//W3C//DTD SVG 1.1//EN" "http://www.w3.org/Graphics/SVG/1.1/DTD/svg11.dtd">
<svg version="1.1" id="Layer_1" xmlns="http://www.w3.org/2000/svg" xmlns:xlink="http://www.w3.org/1999/xlink" x="0px" y="0px"
	 width="32px" height="32px" viewBox="0 0 32 32" enable-background="new 0 0 32 32" xml:space="preserve">
<g>
	<g>
		<path fill="#ED2B83" d="M11,4.414l1.582,1.582l-6.157,6.089c-0.229,0.202-0.376,0.478-0.417,0.783
			c-0.044,0.335,0.049,0.679,0.257,0.945l0.042,0.053l0.048,0.047l5.222,5.096L10,20.586L2.414,13L11,4.414 M11,3L1,13l9,9l3-3
			l-5.946-5.803C7.012,13.144,6.99,13.073,7,13s0.048-0.136,0.102-0.178L14,6L11,3L11,3z"/>
	</g>
</g>
<g>
	<g>
		<path fill="#ED2B83" d="M22,11.414L29.586,19L21,27.586l-1.582-1.582l6.157-6.089c0.229-0.202,0.375-0.478,0.416-0.783
			c0.045-0.334-0.049-0.679-0.257-0.945l-0.042-0.053l-0.048-0.047l-5.222-5.096L22,11.414 M22,10l-3,3l5.946,5.803
			C24.988,18.856,25.01,18.927,25,19s-0.048,0.136-0.102,0.178L18,26l3,3l10-10L22,10L22,10z"/>
	</g>
</g>
</svg>
