<?xml version="1.0" encoding="utf-8"?>
<!-- Generator: Adobe Illustrator 16.0.5, SVG Export Plug-In . SVG Version: 6.00 Build 0)  -->
<!DOCTYPE svg PUBLIC "-//W3C//DTD SVG 1.1//EN" "http://www.w3.org/Graphics/SVG/1.1/DTD/svg11.dtd">
<svg version="1.1" id="Layer_1" xmlns="http://www.w3.org/2000/svg" xmlns:xlink="http://www.w3.org/1999/xlink" x="0px" y="0px"
	 width="32px" height="32px" viewBox="0 0 32 32" enable-background="new 0 0 32 32" xml:space="preserve">
<g>
	<path fill="#ED2B83" d="M5,13c1.654,0,3,1.346,3,3c0,1.655-1.346,3-3,3s-3-1.346-3-3C2,14.345,3.346,13,5,13 M5,12
		c-2.209,0-4,1.791-4,4c0,2.209,1.791,4,4,4s4-1.791,4-4C9,13.791,7.209,12,5,12L5,12z"/>
</g>
<g>
	<path fill="#ED2B83" d="M27,13c1.654,0,3,1.346,3,3c0,1.655-1.346,3-3,3s-3-1.346-3-3C24,14.345,25.346,13,27,13 M27,12
		c-2.209,0-4,1.791-4,4c0,2.209,1.791,4,4,4s4-1.791,4-4C31,13.791,29.209,12,27,12L27,12z"/>
</g>
<g>
	<path fill="#ED2B83" d="M16,13c1.654,0,3,1.346,3,3c0,1.655-1.346,3-3,3s-3-1.346-3-3C13,14.345,14.346,13,16,13 M16,12
		c-2.209,0-4,1.791-4,4c0,2.209,1.791,4,4,4s4-1.791,4-4C20,13.791,18.209,12,16,12L16,12z"/>
</g>
</svg>
