<?xml version="1.0" encoding="utf-8"?>
<!DOCTYPE svg PUBLIC "-//W3C//DTD SVG 1.1//EN" "http://www.w3.org/Graphics/SVG/1.1/DTD/svg11.dtd">
<svg version="1.1" id="Layer_1" xmlns="http://www.w3.org/2000/svg" xmlns:xlink="http://www.w3.org/1999/xlink" x="0px" y="0px"
	 width="20px" height="20px" viewBox="0 0 20 20" enable-background="new 0 0 20 20" xml:space="preserve">
<g>
	<path fill="#67B21F" d="M10,1c4.963,0,9,4.038,9,9c0,4.963-4.037,9-9,9c-4.962,0-9-4.037-9-9C1,5.038,5.038,1,10,1 M10,0
		C4.477,0,0,4.477,0,10c0,5.521,4.477,10,10,10c5.521,0,10-4.479,10-10C20,4.477,15.521,0,10,0L10,0z"/>
</g>
<g>
	<path fill="#67B21F" d="M14.5,6.414L16.086,8L8.5,15.586L3.914,11L5.5,9.414l2.293,2.293L8.5,12.414l0.707-0.707L14.5,6.414
		 M14.5,5l-6,6l-3-3l-3,3l6,6l9-9L14.5,5L14.5,5z"/>
</g>
</svg>
