<?xml version="1.0" encoding="utf-8"?>
<!DOCTYPE svg PUBLIC "-//W3C//DTD SVG 1.1//EN" "http://www.w3.org/Graphics/SVG/1.1/DTD/svg11.dtd">
<svg version="1.1" id="Layer_1" xmlns="http://www.w3.org/2000/svg" xmlns:xlink="http://www.w3.org/1999/xlink" x="0px" y="0px"
	 width="32px" height="32px" viewBox="0 0 32 32" enable-background="new 0 0 32 32" xml:space="preserve">
<g>
	<path fill="#ED2B83" d="M29,13.414L30.586,15l-3.293,3.293L26.586,19l0.707,0.707L30.586,23L29,24.586l-3.293-3.293L25,20.586
		l-0.707,0.707L21,24.586L19.414,23l3.293-3.293L23.414,19l-0.707-0.707L19.414,15L21,13.414l3.293,3.293L25,17.414l0.707-0.707
		L29,13.414 M29,12l-4,4l-4-4l-3,3l4,4l-4,4l3,3l4-4l4,4l3-3l-4-4l4-4L29,12L29,12z"/>
</g>
<g>
	<path fill="#ED2B83" d="M10,23v2H8v-2H10 M11,22H7v4h4V22L11,22z"/>
</g>
<g>
	<path fill="#ED2B83" d="M9,5c3.309,0,6,2.691,6,6c0,3.533-2.605,5-4,5c-0.552,0-1,0.448-1,1v2H8v-3c0-1.103,0.897-2,2-2
		c1.654,0,3-1.346,3-3c0-2.206-1.794-4-4-4s-4,1.794-4,4H3C3,7.691,5.691,5,9,5 M9,4c-3.866,0-7,3.134-7,7v1h4v-1
		c0-1.657,1.343-3,3-3s3,1.343,3,3c0,1.104-0.896,2-2,2c-1.657,0-3,1.343-3,3v4h4v-3c2,0,5-2,5-6C16,7.134,12.866,4,9,4L9,4z"/>
</g>
</svg>
